HIERARCHY
ROOT Pelvis
{
	OFFSET 0.000000 0.000000 0.000000
	CHANNELS 6 Xposition Yposition Zposition Zrotation Yrotation Xrotation 
	JOINT Left_hip
	{
		OFFSET 0.076090 -0.089427 -0.010735
		CHANNELS 3 Zrotation Yrotation Xrotation
		JOINT Left_knee
		{
			OFFSET 0.030200 -0.359518 -0.003501
			CHANNELS 3 Zrotation Yrotation Xrotation
			JOINT Left_ankle
			{
				OFFSET -0.011005 -0.371022 -0.045888
				CHANNELS 3 Zrotation Yrotation Xrotation
				JOINT Left_foot
				{
					OFFSET 0.023930 -0.052103 0.111084
					CHANNELS 3 Zrotation Yrotation Xrotation
					End Site
					{
						OFFSET 0.000000 0.000000 0.000000
					}
				}
			}
		}
	}
	JOINT Right_hip
	{
		OFFSET -0.073836 -0.088112 -0.007709
		CHANNELS 3 Zrotation Yrotation Xrotation
		JOINT Right_knee
		{
			OFFSET -0.035715 -0.367809 -0.006536
			CHANNELS 3 Zrotation Yrotation Xrotation
			JOINT Right_ankle
			{
				OFFSET 0.013718 -0.371958 -0.043815
				CHANNELS 3 Zrotation Yrotation Xrotation
				JOINT Right_foot
				{
					OFFSET -0.021936 -0.046387 0.114542
					CHANNELS 3 Zrotation Yrotation Xrotation
					End Site
					{
						OFFSET 0.000000 0.000000 0.000000
					}
				}
			}
		}
	}
	JOINT Spine1
	{
		OFFSET -0.001865 0.102064 -0.019455
		CHANNELS 3 Zrotation Yrotation Xrotation
		JOINT Spine2
		{
			OFFSET 0.003082 0.129260 -0.001938
			CHANNELS 3 Zrotation Yrotation Xrotation
			JOINT Spine3
			{
				OFFSET 0.001104 0.048093 0.026561
				CHANNELS 3 Zrotation Yrotation Xrotation
				JOINT Neck
				{
					OFFSET -0.002010 0.204222 -0.047183
					CHANNELS 3 Zrotation Yrotation Xrotation
					JOINT Head
					{
						OFFSET 0.005050 0.063649 0.048489
						CHANNELS 3 Zrotation Yrotation Xrotation
						End Site
						{
							OFFSET 0.000000 0.000000 0.000000
						}
					}
				}
				JOINT Left_collar
				{
					OFFSET 0.072979 0.114065 -0.031633
					CHANNELS 3 Zrotation Yrotation Xrotation
					JOINT Left_shoulder
					{
						OFFSET 0.083419 0.032092 -0.006530
						CHANNELS 3 Zrotation Yrotation Xrotation
						JOINT Left_elbow
						{
							OFFSET 0.239393 -0.012014 -0.025060
							CHANNELS 3 Zrotation Yrotation Xrotation
							JOINT Left_wrist
							{
								OFFSET 0.227297 0.008116 0.000384
								CHANNELS 3 Zrotation Yrotation Xrotation
								JOINT Left_palm
								{
									OFFSET 0.074607 -0.009248 -0.012277
									CHANNELS 3 Zrotation Yrotation Xrotation
									End Site
									{
										OFFSET 0.000000 0.000000 0.000000
									}
								}
							}
						}
					}
				}
				JOINT Right_collar
				{
					OFFSET -0.074980 0.111880 -0.037894
					CHANNELS 3 Zrotation Yrotation Xrotation
					JOINT Right_shoulder
					{
						OFFSET -0.087565 0.034353 -0.009323
						CHANNELS 3 Zrotation Yrotation Xrotation
						JOINT Right_elbow
						{
							OFFSET -0.236838 -0.013719 -0.019794
							CHANNELS 3 Zrotation Yrotation Xrotation
							JOINT Right_wrist
							{
								OFFSET -0.235053 0.006433 -0.003853
								CHANNELS 3 Zrotation Yrotation Xrotation
								JOINT Right_palm
								{
									OFFSET -0.075499 -0.006894 -0.009792
									CHANNELS 3 Zrotation Yrotation Xrotation
									End Site
									{
										OFFSET 0.000000 0.000000 0.000000
									}
								}
							}
						}
					}
				}
			}
		}
	}
}
MOTION
Frames: 5
Frame Time: 0.100000
0.000000 0.000000 0.000000 -177.934976 23.625849 -19.570830 -6.539069 5.099979 13.362307 -6.493646 -9.569777 -5.272005 11.115384 9.367647 -10.931434 -7.454223 15.090798 -0.864348 -7.903657 2.228534 -10.004306 -1.235698 5.466528 34.583774 5.695521 -16.264706 -17.031811 -4.717783 14.259122 -0.240897 -2.149101 -1.283486 9.715266 -0.462495 0.440485 3.743534 -2.464054 -1.873210 0.340008 6.204612 6.367411 -7.661721 -6.076643 -3.344160 10.253787 -33.245271 -10.099656 2.957643 -41.053700 -18.769523 5.706285 4.498919 -22.449030 5.099455 -5.484760 1.568525 5.568946 -9.484509 -5.425624 -9.836087 34.964709 14.043756 5.307189 42.907005 11.766521 14.849877 -7.886744 16.836150 -10.383785 4.865065 -2.643748 7.759319 10.934659 8.556286 -6.886889 
0.000406 0.000659 -0.003953 -177.911508 23.919676 -19.541515 -6.717528 4.875058 12.872073 -6.591096 -9.675260 -4.886126 10.741659 9.431240 -10.875702 -6.729312 15.106605 -1.230974 -8.008184 2.249767 -10.180497 -1.261828 5.608568 34.530306 6.237243 -16.578315 -16.865939 -5.724542 14.420644 -0.893850 -2.140686 -1.227922 9.870208 -0.635550 0.536605 3.626991 -2.612854 -1.880220 0.652321 6.509236 6.020182 -8.008871 -5.750601 -3.670782 10.313395 -33.061363 -9.114715 2.917161 -41.218958 -17.634414 5.875597 4.163040 -23.362559 5.824876 -5.283386 1.040842 5.463016 -9.585215 -5.423604 -10.114447 34.458558 13.425033 5.151363 43.521624 11.040103 15.631943 -7.747313 19.845618 -9.211034 4.524777 -2.075139 7.492326 10.943676 8.557224 -6.929166 
0.000996 0.001336 -0.006667 -177.985561 24.087843 -19.458460 -6.589585 4.990020 12.466468 -6.832342 -9.982673 -4.631517 10.140063 9.522667 -10.922327 -5.959949 14.816500 -1.419360 -7.991601 2.182276 -10.450868 -1.173229 5.860322 34.536071 6.861547 -16.890791 -16.840654 -6.838191 14.490902 -1.784713 -2.159867 -1.182574 10.313134 -0.802793 0.811632 3.337420 -2.680807 -1.840608 1.080394 6.855750 5.577218 -8.871861 -5.462406 -4.208292 9.935131 -33.298160 -6.906865 2.747184 -41.273507 -15.244931 5.252966 4.048393 -19.600147 5.252171 -4.746872 1.350314 5.629671 -9.574562 -5.499286 -10.777346 34.391753 11.910549 4.646087 43.545053 9.587971 15.828047 -7.053529 19.064507 -8.684917 4.108155 -2.063161 7.571398 11.032134 8.519769 -6.968558 
0.002853 -0.000135 -0.007864 -178.753275 24.569222 -19.223027 -5.741871 4.928369 11.597748 -7.058208 -10.262028 -4.296367 8.680304 9.446706 -10.639955 -4.428077 14.055314 -1.835238 -7.430158 1.947926 -10.383253 -1.007731 5.872067 33.407138 7.521913 -17.054218 -16.808192 -8.328199 14.084073 -2.673852 -2.064051 -1.066180 10.636954 -0.712136 0.965173 3.193396 -2.353905 -1.866753 1.881539 7.152710 5.045268 -10.743050 -4.714693 -5.058951 8.454947 -33.128580 -4.114964 2.542617 -42.368269 -12.161706 4.675011 4.017224 -13.846329 4.910862 -4.650587 1.699014 5.731201 -9.342660 -5.503584 -11.678697 33.876569 9.632319 3.892502 43.923865 7.401385 15.256570 -6.610690 15.997627 -8.708600 3.786739 -2.154860 7.132144 10.998511 8.312234 -7.041359 
0.006952 -0.006014 -0.005884 179.393970 25.253591 -18.398356 -4.006692 4.520644 9.703278 -6.802828 -10.160507 -4.040079 5.667619 9.634634 -9.651806 -1.206570 11.983803 -2.874842 -5.734931 2.011063 -10.178621 0.115363 6.693895 30.558307 8.585434 -15.053233 -17.251911 -10.740800 12.651840 -3.476038 -1.604618 -0.793089 10.592399 -0.238951 1.059654 2.549756 -1.562142 -1.759590 3.001689 7.166735 4.296332 -14.451388 -2.940865 -6.586411 5.614695 -31.926388 -0.167361 2.040065 -45.526329 -8.073623 4.804258 4.145787 -9.462089 4.580315 -3.882727 1.161685 4.487356 -9.181353 -5.226568 -12.244307 32.329491 5.930809 2.584658 45.232139 3.573055 14.509346 -6.338007 12.869968 -7.979713 3.638870 -2.140444 5.089482 10.925354 7.761677 -7.145439 
